<svg fill="#000000" xmlns="http://www.w3.org/2000/svg"  viewBox="0 0 50 50" width="50px" height="50px"><path d="M 25 2 C 20.078185 2 15.353753 5.8308683 11.496094 12.351562 C 8.15405 17.992802 6 24.791932 6 29.984375 C 6 39.942843 14.560526 48 25 48 C 35.439474 48 44 39.942843 44 29.984375 C 44 24.791932 41.84595 17.992802 38.503906 12.351562 C 34.646247 5.8308683 29.921815 2 25 2 z M 25 4 C 28.858185 4 33.116862 7.1737882 36.783203 13.371094 C 39.95316 18.721856 42 25.362818 42 29.984375 C 42 38.795907 34.414526 46 25 46 C 15.585474 46 8 38.795907 8 29.984375 C 8 25.362818 10.04684 18.721856 13.216797 13.371094 C 16.883138 7.1737882 21.141815 4 25 4 z M 23.732422 8.0019531 C 22.305218 7.972318 20.938906 8.6653342 19.853516 9.734375 C 18.613069 10.956136 17.673994 12.696756 17.242188 14.710938 C 16.810363 16.725205 16.960807 18.664279 17.619141 20.234375 C 18.277474 21.804471 19.518561 23.048294 21.166016 23.328125 C 21.940234 23.460663 22.688419 23.394745 23.314453 23.0625 C 23.940487 22.730255 24.371784 22.179465 24.675781 21.578125 C 25.283775 20.375445 25.531424 18.866197 25.921875 17.044922 C 26.303977 15.263394 26.879188 13.44432 26.974609 11.810547 C 27.02232 10.99366 26.957643 10.181499 26.533203 9.4550781 C 26.108763 8.7286576 25.299321 8.2211802 24.347656 8.0605469 C 24.141951 8.0258387 23.936308 8.0061867 23.732422 8.0019531 z M 23.349609 10.019531 C 23.576885 9.9910744 23.800287 9.9949164 24.015625 10.03125 C 24.55396 10.12212 24.685518 10.255592 24.806641 10.462891 C 24.927763 10.670189 25.014055 11.084871 24.978516 11.693359 C 24.907436 12.910337 24.372695 14.734481 23.966797 16.626953 C 23.570247 18.476678 23.266834 19.935461 22.892578 20.675781 C 22.70545 21.045941 22.53995 21.21037 22.376953 21.296875 C 22.213956 21.383375 21.980735 21.439381 21.501953 21.357422 C 20.641408 21.211253 19.931307 20.57809 19.462891 19.460938 C 18.994474 18.343784 18.84209 16.785639 19.197266 15.128906 C 19.552459 13.472088 20.34076 12.063395 21.257812 11.160156 C 21.945603 10.482727 22.667781 10.104902 23.349609 10.019531 z M 32 12 C 31.449 12 31 12.449 31 13 C 31 13.551 31.449 14 32 14 C 32.551 14 33 13.551 33 13 C 33 12.449 32.551 12 32 12 z M 14 18 C 13.449 18 13 18.449 13 19 C 13 19.551 13.449 20 14 20 C 14.551 20 15 19.551 15 19 C 15 18.449 14.551 18 14 18 z M 36 18 C 35.449 18 35 18.449 35 19 C 35 19.551 35.449 20 36 20 C 36.551 20 37 19.551 37 19 C 37 18.449 36.551 18 36 18 z M 31.605469 20.013672 C 31.085008 20.008972 30.57902 20.111232 30.121094 20.3125 C 29.205241 20.715037 28.479623 21.427456 27.830078 22.275391 C 26.530989 23.971259 25.495456 26.292853 24.416016 28.53125 C 23.336724 30.76735 22.365232 32.551125 22.074219 34.238281 C 21.928712 35.08186 21.978939 35.955823 22.398438 36.722656 C 22.81794 37.48949 23.552048 38.06338 24.505859 38.484375 C 26.498633 39.366363 28.775668 39.036551 30.773438 37.925781 C 32.771206 36.815012 34.549953 34.921681 35.720703 32.496094 C 36.891465 30.070481 37.249976 27.539082 36.833984 25.341797 C 36.417993 23.144512 35.174472 21.238974 33.181641 20.359375 C 32.662288 20.130143 32.12593 20.01842 31.605469 20.013672 z M 31.589844 21.990234 C 31.818538 21.993096 32.067149 22.054438 32.373047 22.189453 C 33.681215 22.766854 34.545882 24.005425 34.869141 25.712891 C 35.192399 27.420356 34.921161 29.552566 33.919922 31.626953 C 32.918672 33.701366 31.391715 35.294254 29.802734 36.177734 C 28.213754 37.061215 26.622679 37.235262 25.314453 36.65625 L 25.314453 36.654297 C 24.617764 36.346791 24.30556 36.043744 24.152344 35.763672 C 23.999128 35.483599 23.949757 35.141172 24.046875 34.578125 C 24.241112 33.452032 25.124088 31.66429 26.216797 29.400391 L 26.216797 29.398438 C 27.309357 27.132835 28.352854 24.880069 29.416016 23.492188 C 29.947596 22.798247 30.472603 22.34176 30.925781 22.142578 C 31.15237 22.042988 31.361149 21.987373 31.589844 21.990234 z M 12 26 C 11.449 26 11 26.449 11 27 C 11 27.551 11.449 28 12 28 C 12.551 28 13 27.551 13 27 C 13 26.449 12.551 26 12 26 z M 21 26 C 20.449 26 20 26.449 20 27 C 20 27.551 20.449 28 21 28 C 21.551 28 22 27.551 22 27 C 22 26.449 21.551 26 21 26 z M 11.105469 31 C 10.995854 30.994883 10.8785 31.023969 10.75 31.089844 C 9.72 31.616844 9.753125 33.558687 10.828125 35.429688 C 11.907125 37.301687 13.610625 38.392141 14.640625 37.869141 C 15.671625 37.342141 14.2625 36.201078 13.1875 34.330078 C 12.246875 32.692953 11.872775 31.03582 11.105469 31 z M 19 33 C 18.449 33 18 33.449 18 34 C 18 34.551 18.449 35 19 35 C 19.551 35 20 34.551 20 34 C 20 33.449 19.551 33 19 33 z M 36.255859 35.009766 C 35.513066 34.860387 34.763484 36.345781 33.474609 37.675781 C 32.001609 39.195781 30.380234 39.9415 31.240234 40.6875 C 32.103234 41.4295 33.998703 40.80025 35.470703 39.28125 C 36.942703 37.76225 37.438219 35.926687 36.574219 35.179688 C 36.466844 35.086438 36.361973 35.031105 36.255859 35.009766 z M 21 41 C 20.449 41 20 41.449 20 42 C 20 42.551 20.449 43 21 43 C 21.551 43 22 42.551 22 42 C 22 41.449 21.551 41 21 41 z M 27 42 C 26.449 42 26 42.449 26 43 C 26 43.551 26.449 44 27 44 C 27.551 44 28 43.551 28 43 C 28 42.449 27.551 42 27 42 z"/></svg>