<svg height="1354.742" viewBox="0 0 973.71 1354.742" width="973.71" xmlns="http://www.w3.org/2000/svg"><g fill="#4c9d80"><path d="m90.162 135.457a45.048 45.048 0 0 0 18.6-29.088c4.208-23.436 19-63.682 70.587-81.509a4.931 4.931 0 0 1 6.369 5.954c-5.118 18.69-14.254 61.41 7.193 67.367 27.574 7.66 133.255 13 185.34 77.341s94.277 176.957-13.914 322.094c-104.717 140.476 45.417 214.863 45.417 214.863s-315.992 100-332.941 18.383c-17.179-82.723-21.809-164.7 128.009-314.042 76.841-76.6 78.472-147.064 18.727-136.341s-88.789 39.2-131.745 78.57c-11.341 10.394-33.957 26.019-59.913 14.024-61.139-28.253-30.383-176.099 58.271-237.616z"/><path d="m45.907 198.274a29.787 29.787 0 0 0 .352-22.825c-5.779-14.644-11.446-42.422 11.37-70.377a3.261 3.261 0 0 1 5.652 1.135c3.619 12.293 13.326 39.493 27.46 35.393"/><path d="m186.156 135.013a42.952 42.952 0 0 0 26.135-20.02c11.4-19.637 37.75-50.9 89.784-50.095a4.7 4.7 0 0 1 3.772 7.409c-10.668 15.087-32.754 50.405-15.469 62.722"/><path d="m276.976 940.138c126.479 0 378.574 0 511.851-56.084 77.562-32.64 70.391-157.874 61.276-216-21.446-136.771-810.439-126.88-775.148 53.617 30.095 153.929 117.871 218.467 202.021 218.467z"/><path d="m663.21 703.288s-103.4 154.553-18.386 248.226c56.206 61.932 85.612 143.572 79.267 226.965l-.443 5.83h51.717a55.077 55.077 0 0 0 52.551-38.591c36.194-115.318 127.291-453.734-24.627-525.013"/><path d="m149.123 881.913s130.952 94.212 77.9 272.454a23.3 23.3 0 0 0 22.33 29.942h31.187a29.232 29.232 0 0 0 26.175-16.139c19.941-39.97 62.938-150.41 15.625-288.712"/><path d="m234.3 607.394s199.925 17.481 289.845-305.2c31.701-113.778 149.855-292.95 448.065-294.694 0 0-203.579 78.749-161.343 210.161a16.871 16.871 0 0 1 -6.429 19.072c-28.219 19.512-100.1 78.892-83.04 167.955a16.88 16.88 0 0 1 -12.629 19.7c-44.053 10.32-158.557 50.578-139.517 188"/><path d="m829.928 636.692 4.863 3.46c.794.582 1.635 1.167 2.382 1.753l2.139 1.757 4.252 3.537c1.318 1.186 2.578 2.376 3.864 3.568l1.915 1.791c.645.6 1.275 1.2 1.847 1.8l3.523 3.617c2.41 2.4 4.507 4.858 6.7 7.3a327.3 327.3 0 0 1 23.228 30.025 485.5 485.5 0 0 1 36.5 63.4c2.547 5.482 5.205 10.907 7.569 16.46 1.206 2.766 2.44 5.517 3.617 8.292l3.423 8.37 1.7 4.185 1.6 4.226 3.2 8.449 2.994 8.525c.983 2.846 2.016 5.671 2.9 8.554a519.725 519.725 0 0 1 17.72 70.073 438.027 438.027 0 0 1 6.651 72.287c.012 1.518.062 3.032.042 4.552l-.115 4.563-.24 9.117c-.093 3.038-.379 6.081-.563 9.118-.23 3.038-.366 6.074-.682 9.107a342.677 342.677 0 0 1 -5.432 36.2 307.158 307.158 0 0 1 -23.034 69.465 292.466 292.466 0 0 1 -39.4 61.256 324.471 324.471 0 0 1 -52.091 49.649l-7.174 5.338-3.585 2.663c-1.179.911-2.458 1.672-3.681 2.515l-7.419 4.933-3.707 2.462c-1.245.8-2.446 1.68-3.737 2.406l-15.261 9.053c-1.257.779-2.568 1.453-3.873 2.142l-3.909 2.068-7.815 4.128-3.9 2.061c-1.29.709-2.649 1.274-3.97 1.918l-7.976 3.745-7.97 3.739c-2.665 1.222-5.4 2.277-8.094 3.422l-8.107 3.368-4.052 1.682-2.025.84-2.055.757-16.444 6.017a658.325 658.325 0 0 1 -66.926 19.415l-8.449 2.016-4.224 1-4.254.86-17 3.437c-5.65 1.222-11.358 2.113-17.051 3.075l-17.07 2.867c-5.7.85-11.426 1.577-17.133 2.37l-8.563 1.165c-2.856.373-5.7.822-8.57 1.088l-17.173 1.824c-5.726.573-11.432 1.309-17.174 1.683-45.837 3.995-91.768 5.412-137.616 5.107 45.791-2.36 91.462-6.444 136.685-13.053 5.669-.7 11.287-1.761 16.924-2.659l16.89-2.8c2.82-.426 5.609-1.036 8.41-1.569l8.394-1.644c5.591-1.112 11.192-2.156 16.767-3.321l16.651-3.805c5.546-1.272 11.107-2.473 16.585-4l16.482-4.341 4.117-1.084 4.079-1.219 8.147-2.453a640.176 640.176 0 0 0 63.91-22.635l15.49-6.711 1.932-.842 1.895-.92 3.788-1.84 7.57-3.675c2.512-1.244 5.069-2.4 7.54-3.715l7.376-4 7.37-4c1.217-.683 2.478-1.291 3.658-2.035l3.577-2.167 7.149-4.328 3.572-2.16c1.192-.719 2.391-1.424 3.526-2.226l13.8-9.311c1.17-.745 2.236-1.631 3.352-2.448l3.314-2.494 6.623-4.979c1.088-.847 2.24-1.618 3.276-2.526l3.164-2.657 6.324-5.3a294.47 294.47 0 0 0 44.582-47.692 258.422 258.422 0 0 0 31.631-56.044 269.128 269.128 0 0 0 16.56-61.855 302.064 302.064 0 0 0 2.912-32.007c.125-2.678.076-5.376.125-8.06 0-2.688.111-5.366.032-8.057l-.264-8.071-.127-4.031c-.059-1.344-.188-2.69-.278-4.034a392.235 392.235 0 0 0 -9.7-64.072 469.9 469.9 0 0 0 -19.638-62.136c-.942-2.549-2.031-5.048-3.068-7.563l-3.147-7.53-3.334-7.449-1.666-3.723-1.758-3.68-3.518-7.354c-1.2-2.435-2.463-4.843-3.69-7.265-2.408-4.868-5.088-9.586-7.645-14.363a427.814 427.814 0 0 0 -35.227-53.751 266.38 266.38 0 0 0 -20.2-23.215c-1.748-1.715-3.472-3.537-5.234-5.063l-2.618-2.394c-.435-.417-.87-.776-1.3-1.122l-1.3-1.063-2.574-2.123-2.488-1.8-1.229-.91c-.4-.274-.764-.463-1.144-.7q-1.126-.686-2.223-1.4z"/><path d="m389.07 1312.564c36.038-7.76 93.452-21.789 134.325-39.854a13.174 13.174 0 0 1 18.292 14.435c-2.6 13.9-1.066 30.27 12.255 45a13.184 13.184 0 0 1 -9.312 21.984c-42.325 1.657-111.369 1.035-157.475-16.336-12.299-4.63-10.934-22.463 1.915-25.229z"/></g><path d="m85.025 240.328c-27.6-30.588 5.331-73.539 36.19-27.46" fill="none" stroke="#2a3e3d" stroke-linecap="round" stroke-linejoin="round" stroke-width="15"/><path d="m328.49 591.426s130.91-53.608 184.558-252.746 183.098-320.755 453.162-331.18" fill="none" stroke="#2a3e3d" stroke-linecap="round" stroke-linejoin="round" stroke-width="15"/><path d="m612.928 798.1c-19.165 40-9.944 113.775 45.521 174.657 78.293 85.938 66.533 179.836 65.268 204.646" fill="none" stroke="#2a3e3d" stroke-linecap="round" stroke-linejoin="round" stroke-width="15"/><path d="m227.2 1168.258s26.517-65.2 7.091-148.148c-13.221-56.458-51.547-104.189-74.678-128.918a327.587 327.587 0 0 1 -50.629-70.626c-17.5-33.122-35.927-77.625-37.711-120.552" fill="none" stroke="#2a3e3d" stroke-linecap="round" stroke-linejoin="round" stroke-width="15"/></svg>